<mxfile host="app.diagrams.net" agent="Mozilla/5.0 (Windows NT 10.0; Win64; x64) AppleWebKit/537.36 (KHTML, like Gecko) Chrome/137.0.0.0 Safari/537.36" version="27.1.4">
  <diagram id="TO53iaUUWwJSCDP38uHB" name="Trang-1">
    <mxGraphModel dx="1042" dy="574" grid="1" gridSize="10" guides="1" tooltips="1" connect="1" arrows="1" fold="1" page="1" pageScale="1" pageWidth="827" pageHeight="1169" math="0" shadow="0">
      <root>
        <mxCell id="0" />
        <mxCell id="1" parent="0" />
        <mxCell id="MTL5Lu5wS2_lo1rsRAY1-2" style="edgeStyle=orthogonalEdgeStyle;rounded=0;orthogonalLoop=1;jettySize=auto;html=1;exitX=0.5;exitY=1;exitDx=0;exitDy=0;entryX=0.5;entryY=0;entryDx=0;entryDy=0;" edge="1" parent="1" source="MTL5Lu5wS2_lo1rsRAY1-3" target="MTL5Lu5wS2_lo1rsRAY1-6">
          <mxGeometry relative="1" as="geometry" />
        </mxCell>
        <mxCell id="MTL5Lu5wS2_lo1rsRAY1-3" value="" style="ellipse;whiteSpace=wrap;html=1;" vertex="1" parent="1">
          <mxGeometry x="150" y="80" width="120" height="80" as="geometry" />
        </mxCell>
        <mxCell id="MTL5Lu5wS2_lo1rsRAY1-4" value="Begin" style="text;html=1;align=center;verticalAlign=middle;whiteSpace=wrap;rounded=0;" vertex="1" parent="1">
          <mxGeometry x="180" y="105" width="60" height="30" as="geometry" />
        </mxCell>
        <mxCell id="MTL5Lu5wS2_lo1rsRAY1-17" style="edgeStyle=orthogonalEdgeStyle;rounded=0;orthogonalLoop=1;jettySize=auto;html=1;exitX=0.5;exitY=1;exitDx=0;exitDy=0;entryX=0.5;entryY=0;entryDx=0;entryDy=0;" edge="1" parent="1" source="MTL5Lu5wS2_lo1rsRAY1-6" target="MTL5Lu5wS2_lo1rsRAY1-16">
          <mxGeometry relative="1" as="geometry" />
        </mxCell>
        <mxCell id="MTL5Lu5wS2_lo1rsRAY1-6" value="" style="shape=parallelogram;perimeter=parallelogramPerimeter;whiteSpace=wrap;html=1;fixedSize=1;" vertex="1" parent="1">
          <mxGeometry x="150" y="220" width="120" height="60" as="geometry" />
        </mxCell>
        <mxCell id="MTL5Lu5wS2_lo1rsRAY1-7" value="input a=&amp;nbsp;&lt;div&gt;&amp;nbsp;b=&amp;nbsp;&lt;/div&gt;&lt;div&gt;c=&lt;/div&gt;&lt;div&gt;&lt;br&gt;&lt;/div&gt;" style="text;html=1;align=center;verticalAlign=middle;whiteSpace=wrap;rounded=0;" vertex="1" parent="1">
          <mxGeometry x="165" y="235" width="90" height="30" as="geometry" />
        </mxCell>
        <mxCell id="MTL5Lu5wS2_lo1rsRAY1-22" style="edgeStyle=orthogonalEdgeStyle;rounded=0;orthogonalLoop=1;jettySize=auto;html=1;entryX=0.5;entryY=0;entryDx=0;entryDy=0;" edge="1" parent="1" source="MTL5Lu5wS2_lo1rsRAY1-16" target="MTL5Lu5wS2_lo1rsRAY1-19">
          <mxGeometry relative="1" as="geometry" />
        </mxCell>
        <mxCell id="MTL5Lu5wS2_lo1rsRAY1-24" style="edgeStyle=orthogonalEdgeStyle;rounded=0;orthogonalLoop=1;jettySize=auto;html=1;exitX=0;exitY=0.5;exitDx=0;exitDy=0;entryX=0.5;entryY=0;entryDx=0;entryDy=0;" edge="1" parent="1" source="MTL5Lu5wS2_lo1rsRAY1-16" target="MTL5Lu5wS2_lo1rsRAY1-21">
          <mxGeometry relative="1" as="geometry" />
        </mxCell>
        <mxCell id="MTL5Lu5wS2_lo1rsRAY1-16" value="a&amp;gt;b &amp;amp; a&amp;gt;c" style="rhombus;whiteSpace=wrap;html=1;" vertex="1" parent="1">
          <mxGeometry x="170" y="340" width="80" height="70" as="geometry" />
        </mxCell>
        <mxCell id="MTL5Lu5wS2_lo1rsRAY1-18" value="&lt;h1 style=&quot;margin-top: 0px;&quot;&gt;MAX&lt;/h1&gt;&lt;div&gt;BEGIN&lt;/div&gt;&lt;div&gt;&lt;br&gt;&lt;/div&gt;&lt;div&gt;input a=&lt;/div&gt;&lt;div&gt;&amp;nbsp; &amp;nbsp; &amp;nbsp; &amp;nbsp; &amp;nbsp;b=&lt;/div&gt;&lt;div&gt;&amp;nbsp; &amp;nbsp; &amp;nbsp; &amp;nbsp; &amp;nbsp;c=&lt;/div&gt;&lt;div&gt;&lt;br&gt;&lt;/div&gt;&lt;div&gt;if a&amp;gt;b AND a&amp;gt;c&lt;/div&gt;&lt;div&gt;output a= max&lt;/div&gt;&lt;div&gt;&amp;nbsp; &amp;nbsp; elif : b&amp;gt;c&amp;nbsp;&lt;/div&gt;&lt;div&gt;&amp;nbsp; &amp;nbsp; &amp;nbsp;ouput b= max&lt;/div&gt;&lt;div&gt;&amp;nbsp; &amp;nbsp; &amp;nbsp; &amp;nbsp; else:&lt;/div&gt;&lt;div&gt;&amp;nbsp; &amp;nbsp; &amp;nbsp; &amp;nbsp; &amp;nbsp; ouput c= max&lt;/div&gt;&lt;div&gt;&lt;br&gt;&lt;/div&gt;&lt;div&gt;END&lt;/div&gt;&lt;div&gt;&lt;br&gt;&lt;/div&gt;" style="text;html=1;whiteSpace=wrap;overflow=hidden;rounded=0;" vertex="1" parent="1">
          <mxGeometry x="530" y="105" width="180" height="290" as="geometry" />
        </mxCell>
        <mxCell id="MTL5Lu5wS2_lo1rsRAY1-31" style="edgeStyle=orthogonalEdgeStyle;rounded=0;orthogonalLoop=1;jettySize=auto;html=1;exitX=0.5;exitY=1;exitDx=0;exitDy=0;entryX=0.5;entryY=0;entryDx=0;entryDy=0;" edge="1" parent="1" source="MTL5Lu5wS2_lo1rsRAY1-19" target="MTL5Lu5wS2_lo1rsRAY1-29">
          <mxGeometry relative="1" as="geometry" />
        </mxCell>
        <mxCell id="MTL5Lu5wS2_lo1rsRAY1-19" value="a= max" style="rounded=0;whiteSpace=wrap;html=1;" vertex="1" parent="1">
          <mxGeometry x="150" y="440" width="120" height="60" as="geometry" />
        </mxCell>
        <mxCell id="MTL5Lu5wS2_lo1rsRAY1-32" style="edgeStyle=orthogonalEdgeStyle;rounded=0;orthogonalLoop=1;jettySize=auto;html=1;exitX=0.5;exitY=1;exitDx=0;exitDy=0;" edge="1" parent="1" source="MTL5Lu5wS2_lo1rsRAY1-20" target="MTL5Lu5wS2_lo1rsRAY1-29">
          <mxGeometry relative="1" as="geometry" />
        </mxCell>
        <mxCell id="MTL5Lu5wS2_lo1rsRAY1-20" value="c= max" style="rounded=0;whiteSpace=wrap;html=1;" vertex="1" parent="1">
          <mxGeometry x="300" y="470" width="120" height="60" as="geometry" />
        </mxCell>
        <mxCell id="MTL5Lu5wS2_lo1rsRAY1-33" style="edgeStyle=orthogonalEdgeStyle;rounded=0;orthogonalLoop=1;jettySize=auto;html=1;entryX=0.5;entryY=0;entryDx=0;entryDy=0;" edge="1" parent="1" source="MTL5Lu5wS2_lo1rsRAY1-21" target="MTL5Lu5wS2_lo1rsRAY1-29">
          <mxGeometry relative="1" as="geometry" />
        </mxCell>
        <mxCell id="MTL5Lu5wS2_lo1rsRAY1-21" value="b= max" style="rounded=0;whiteSpace=wrap;html=1;" vertex="1" parent="1">
          <mxGeometry y="470" width="120" height="60" as="geometry" />
        </mxCell>
        <mxCell id="MTL5Lu5wS2_lo1rsRAY1-23" style="edgeStyle=orthogonalEdgeStyle;rounded=0;orthogonalLoop=1;jettySize=auto;html=1;entryX=0.37;entryY=-0.023;entryDx=0;entryDy=0;entryPerimeter=0;" edge="1" parent="1" source="MTL5Lu5wS2_lo1rsRAY1-16" target="MTL5Lu5wS2_lo1rsRAY1-20">
          <mxGeometry relative="1" as="geometry" />
        </mxCell>
        <mxCell id="MTL5Lu5wS2_lo1rsRAY1-25" value="b&amp;gt;c" style="text;html=1;align=center;verticalAlign=middle;whiteSpace=wrap;rounded=0;" vertex="1" parent="1">
          <mxGeometry x="90" y="340" width="60" height="30" as="geometry" />
        </mxCell>
        <mxCell id="MTL5Lu5wS2_lo1rsRAY1-26" value="TRUE" style="text;html=1;align=center;verticalAlign=middle;whiteSpace=wrap;rounded=0;" vertex="1" parent="1">
          <mxGeometry x="140" y="410" width="60" height="30" as="geometry" />
        </mxCell>
        <mxCell id="MTL5Lu5wS2_lo1rsRAY1-28" value="false" style="text;html=1;align=center;verticalAlign=middle;whiteSpace=wrap;rounded=0;" vertex="1" parent="1">
          <mxGeometry x="270" y="340" width="60" height="30" as="geometry" />
        </mxCell>
        <mxCell id="MTL5Lu5wS2_lo1rsRAY1-29" value="END" style="ellipse;whiteSpace=wrap;html=1;" vertex="1" parent="1">
          <mxGeometry x="150" y="600" width="120" height="80" as="geometry" />
        </mxCell>
      </root>
    </mxGraphModel>
  </diagram>
</mxfile>
